<?xml version="1.0" encoding="UTF-8"?>
<svg id="Remind_selected" xmlns="http://www.w3.org/2000/svg" viewBox="0 0 386.3 374.81">
  <defs>
    <style>
      .cls-1 {
        fill: none;
        stroke-linecap: round;
      }

      .cls-1, .cls-2, .cls-3 {
        stroke: #fff;
        stroke-width: 12px;
      }

      .cls-1, .cls-3 {
        stroke-miterlimit: 10;
      }

      .cls-2 {
        stroke-linejoin: round;
      }

      .cls-2, .cls-3 {
        fill: #130f1e;
      }
    </style>
  </defs>
  <path class="cls-2" d="m318.47,90c4.33,4.82,8.33,9.94,11.93,15.35l45.74-29.07c-15.09-31.86-42.39-56.8-75.84-68.82l-23.81,51.09c6.98,3.34,13.62,7.26,19.87,11.71l-12.61,15.28c-25.46-18.33-56.69-29.13-90.45-29.13s-62.21,9.86-87.02,26.72l-12.19-14.77c5.44-3.67,11.15-6.96,17.11-9.81L87.4,7.46C53.95,19.49,26.65,44.43,11.56,76.28l45.74,29.07c4.23-6.35,8.98-12.31,14.2-17.83l11.98,14.52c-27.91,28.03-45.16,66.67-45.16,109.35,0,85.59,69.39,154.98,154.98,154.98s154.98-69.39,154.98-154.98c0-41.16-16.05-78.58-42.24-106.33l12.43-15.06Z"/>
  <circle class="cls-3" cx="193.11" cy="211.57" r="125.98"/>
  <polyline class="cls-1" points="193.3 113.01 193.3 211.39 249.59 240.86"/>
</svg>